<?xml version="1.0" standalone="no"?><!DOCTYPE svg PUBLIC "-//W3C//DTD SVG 1.1//EN" "http://www.w3.org/Graphics/SVG/1.1/DTD/svg11.dtd"><svg t="1710681380089" class="icon" viewBox="0 0 1024 1024" version="1.1" xmlns="http://www.w3.org/2000/svg" p-id="37942" xmlns:xlink="http://www.w3.org/1999/xlink" width="200" height="200"><path d="M808.398269 218.955161c20.458525 11.691232 27.566623 37.753501 15.876521 58.213157l-65.330296 114.329713c119.461015 74.88989 203.198446 202.202702 217.966199 350.95283 2.492185 25.107214-17.227161 46.882472-42.457572 46.882472H85.333333c-25.230411 0-44.949757-21.775258-42.457571-46.882472 14.120124-142.220715 91.287453-264.84528 202.445704-340.790817l-71.137484-124.491726c-11.691232-20.459656-4.583135-46.521925 15.876521-58.213157 20.459656-11.691232 46.523055-4.583135 58.214287 15.876521l71.589581 125.281766c58.218808-25.812486 122.559011-40.113448 190.028856-40.113448 60.891832 0 119.233837 11.648283 172.825431 32.893457l67.465324-118.061775c11.691232-20.459656 37.754631-27.567753 58.214287-15.876521zM317.895488 554.666667c-23.563302 0-42.666667 19.102234-42.666667 42.666666s19.103364 42.666667 42.666667 42.666667c23.565563 0 42.666667-19.102234 42.666667-42.666667s-19.101104-42.666667-42.666667-42.666666z m384 0c-23.563302 0-42.666667 19.102234-42.666667 42.666666s19.103364 42.666667 42.666667 42.666667c23.565563 0 42.666667-19.102234 42.666667-42.666667s-19.101104-42.666667-42.666667-42.666666z" p-id="37943" fill="#ffffff"></path></svg>