<?xml version="1.0" standalone="no"?><!DOCTYPE svg PUBLIC "-//W3C//DTD SVG 1.1//EN" "http://www.w3.org/Graphics/SVG/1.1/DTD/svg11.dtd"><svg t="1710681537928" class="icon" viewBox="0 0 1024 1024" version="1.1" xmlns="http://www.w3.org/2000/svg" p-id="39945" xmlns:xlink="http://www.w3.org/1999/xlink" width="200" height="200"><path d="M601.088 485.376l129.024-129.024-542.72-302.592c-6.656-3.584-13.312-5.12-19.968-4.608l433.664 436.224zM133.12 72.704c-1.536 4.096-3.072 9.216-3.072 14.336l-8.192 862.208c0 4.608 1.024 9.216 2.56 12.8l448-448L133.12 72.704zM601.088 543.744L156.672 988.16c7.168 0.512 14.848-0.512 21.504-4.096l562.688-299.52-139.776-140.8zM974.848 492.544l-207.36-115.2-137.728 137.728 148.992 149.504 195.072-103.936c27.136-14.848 27.648-53.248 1.024-68.096z" fill="#ffffff" p-id="39946"></path></svg>