<?xml version="1.0" encoding="utf-8"?>
<!-- Generator: Adobe Illustrator 25.3.1, SVG Export Plug-In . SVG Version: 6.00 Build 0)  -->
<svg version="1.1" id="图层_1" xmlns="http://www.w3.org/2000/svg" xmlns:xlink="http://www.w3.org/1999/xlink" x="0px" y="0px"
	 viewBox="0 0 200 200" style="enable-background:new 0 0 200 200;" xml:space="preserve">
<style type="text/css">
	.st0{fill:#FFFFFF;}
</style>
<path class="st0" d="M167.13,138.62c-8.39-4.16-14.73-10.35-18.42-19.03c-2.66-6.24-3.32-12.79-2.59-19.52
	c0.68-6.25,2.86-11.88,6.67-16.88c2.85-3.75,6.38-6.76,10.3-9.32c0.96-0.63,0.96-0.64,0.28-1.59c-1.38-1.91-2.92-3.69-4.64-5.31
	c-7.31-6.9-16.23-9.87-26.03-10.58c-5.09-0.37-10,0.71-14.79,2.31c-4.04,1.35-8.06,2.74-12.02,4.29c-3.37,1.32-6.59,1.3-10,0.07
	c-4.03-1.45-7.99-3.09-12.09-4.35c-4.03-1.24-8.1-2.15-12.37-1.84c-3.65,0.27-7.2,0.91-10.63,2.17
	c-12.36,4.55-20.53,13.34-25.41,25.36c-2.94,7.25-4.04,14.85-3.93,23.06c-0.1,3.69,0.25,7.75,0.83,11.8
	c1.55,10.79,4.88,21.03,9.51,30.87c3.49,7.42,8.08,14.13,13.12,20.55c2.86,3.66,6.05,7,9.86,9.7c4.68,3.32,9.78,4.3,15.36,2.89
	c2.9-0.73,5.7-1.73,8.46-2.86c4.17-1.71,8.47-2.94,12.99-3.19c5.54-0.31,10.74,1.06,15.8,3.16c2.68,1.11,5.4,2.06,8.23,2.72
	c5.72,1.34,11.04,0.48,15.94-2.8c2.83-1.89,5.27-4.22,7.46-6.81c8.28-9.84,14.87-20.67,18.93-32.94
	C168.38,139.22,168.39,139.24,167.13,138.62z"/>
<path class="st0" d="M100.46,54.92c4.39,0.19,8.58-0.56,12.56-2.45c4.9-2.33,8.82-5.85,12.14-10.07c5.31-6.72,8.38-14.29,8.38-22.96
	c0-0.57,0.01-1.14,0-1.7c-0.03-1.81-0.17-1.89-1.99-1.65c-4.34,0.57-8.34,2.09-12.18,4.12c-8.92,4.72-14.92,11.96-18.31,21.39
	c-1.44,4.02-1.91,8.21-1.52,12.48C99.6,54.73,99.9,54.9,100.46,54.92z"/>
</svg>
