<?xml version="1.0" encoding="utf-8"?>
<!-- Generator: Adobe Illustrator 25.3.1, SVG Export Plug-In . SVG Version: 6.00 Build 0)  -->
<svg version="1.1" id="图层_1" xmlns="http://www.w3.org/2000/svg" xmlns:xlink="http://www.w3.org/1999/xlink" x="0px" y="0px"
	 viewBox="0 0 32 32" style="enable-background:new 0 0 32 32;" xml:space="preserve">
<style type="text/css">
	.st0{fill:#FFFFFF;}
</style>
<path class="st0" d="M2.01,9.55H7.4v19.42H2.01V9.55z M23.6,9.54c-2.77-0.21-5.37,1.36-6.47,3.91v-3.9h-5.39v19.42h5.39v-11
	c0,0,1.08-4,4.01-4c2.16-0.21,4.08,1.36,4.29,3.52c0.02,0.16,0.02,0.32,0.02,0.48v11h5.45V15.31C30.9,9.55,24.69,9.54,23.6,9.54
	L23.6,9.54z M4.68,0.42C2.77,0.35,1.17,1.85,1.1,3.77c0,0.02,0,0.03,0,0.05c0.02,1.91,1.59,3.45,3.5,3.43c0.03,0,0.05,0,0.08,0
	c1.92,0.03,3.5-1.49,3.54-3.41c0,0,0-0.01,0-0.01C8.18,1.9,6.59,0.38,4.68,0.42z"/>
</svg>
