<?xml version="1.0" encoding="utf-8"?>
<!-- Generator: Adobe Illustrator 25.3.1, SVG Export Plug-In . SVG Version: 6.00 Build 0)  -->
<svg version="1.1" id="图层_1" xmlns="http://www.w3.org/2000/svg" xmlns:xlink="http://www.w3.org/1999/xlink" x="0px" y="0px"
	 viewBox="0 0 32 32" style="enable-background:new 0 0 32 32;" xml:space="preserve">
<style type="text/css">
	.st0{fill:#FFFFFF;}
</style>
<path class="st0" d="M31.82,6.52c-1.16,0.5-2.43,0.86-3.74,1c1.35-0.8,2.37-2.07,2.85-3.58c-1.24,0.74-2.65,1.29-4.12,1.57
	c-1.19-1.27-2.87-2.05-4.74-2.05c-3.6,0-6.49,2.91-6.49,6.49c0,0.5,0.06,1,0.16,1.49C10.37,11.16,5.57,8.59,2.37,4.65
	C1.81,5.62,1.49,6.72,1.49,7.93c0,2.25,1.15,4.24,2.89,5.41c-1.07-0.04-2.07-0.34-2.93-0.83v0.08c0,3.15,2.23,5.77,5.2,6.37
	c-0.54,0.14-1.13,0.22-1.71,0.22c-0.42,0-0.82-0.04-1.23-0.1c0.82,2.57,3.22,4.44,6.07,4.5c-2.23,1.75-5.02,2.77-8.05,2.77
	c-0.54,0-1.05-0.02-1.57-0.08c2.88,1.85,6.29,2.91,9.97,2.91c11.93,0,18.46-9.89,18.46-18.47c0-0.28,0-0.56-0.02-0.84
	C29.83,8.95,30.94,7.81,31.82,6.52z"/>
</svg>
