<?xml version="1.0" encoding="utf-8"?>
<!-- Generator: Adobe Illustrator 25.3.1, SVG Export Plug-In . SVG Version: 6.00 Build 0)  -->
<svg version="1.1" id="图层_1" xmlns="http://www.w3.org/2000/svg" xmlns:xlink="http://www.w3.org/1999/xlink" x="0px" y="0px"
	 viewBox="0 0 32 32" style="enable-background:new 0 0 32 32;" xml:space="preserve">
<style type="text/css">
	.st0{fill:#FFFFFF;}
</style>
<path class="st0" d="M16.18,0.76c8.23,0,14.91,6.77,14.91,15.12s-6.68,15.12-14.91,15.12S1.27,24.24,1.27,15.88
	S7.94,0.76,16.18,0.76z M16.64,19.4c1.18-0.07,2.51-0.53,2.74-3.42c-0.61-0.13-1.28-0.21-2-0.21c-0.22,0-0.44,0.01-0.66,0.02
	c-1.98,0.11-2.64,1.09-2.59,1.95C14.19,18.92,15.44,19.47,16.64,19.4z M21.62,14.66c-0.09-0.05-0.19-0.09-0.29-0.13
	c-0.17-3.2-1.89-5.03-4.78-5.05H16.5c-1.73,0-3.17,0.75-4.05,2.11l1.59,1.11c0.66-1.02,1.7-1.23,2.47-1.23h0.03
	c0.95,0.01,1.67,0.28,2.13,0.83c0.34,0.4,0.56,0.95,0.67,1.64c-0.84-0.14-1.76-0.19-2.73-0.13c-2.75,0.16-4.52,1.78-4.39,4.04
	c0.06,1.15,0.63,2.13,1.58,2.77c0.82,0.54,1.86,0.81,2.95,0.75c1.43-0.08,2.56-0.64,3.35-1.65c0.6-0.77,0.98-1.77,1.14-3.04
	c0.68,0.42,1.2,0.97,1.47,1.63c0.47,1.13,0.5,2.98-0.99,4.49c-1.31,1.32-2.87,1.9-5.25,1.92c-2.63-0.02-4.62-0.87-5.92-2.54
	c-1.21-1.55-1.84-3.8-1.86-6.69c0.02-2.88,0.65-5.14,1.86-6.71c1.29-1.67,3.28-2.52,5.92-2.54c2.65,0.02,4.68,0.88,6.01,2.55
	c0.65,0.83,1.16,1.86,1.48,3.06l1.87-0.5c-0.4-1.48-1.02-2.76-1.87-3.82c-1.73-2.15-4.24-3.25-7.49-3.27h-0.01
	c-3.24,0.02-5.73,1.13-7.4,3.28c-1.49,1.92-2.26,4.59-2.29,7.94v0.02c0.03,3.35,0.8,6.01,2.29,7.94c1.67,2.15,4.16,3.26,7.4,3.28
	h0.01c2.88-0.02,4.9-0.79,6.58-2.48c2.19-2.22,2.13-4.99,1.4-6.7C23.95,16.31,22.96,15.31,21.62,14.66L21.62,14.66z"/>
</svg>
