<?xml version="1.0" encoding="utf-8"?>
<!-- Generator: Adobe Illustrator 25.3.1, SVG Export Plug-In . SVG Version: 6.00 Build 0)  -->
<svg version="1.1" id="图层_1" xmlns="http://www.w3.org/2000/svg" xmlns:xlink="http://www.w3.org/1999/xlink" x="0px" y="0px"
	 viewBox="0 0 32 32" style="enable-background:new 0 0 32 32;" xml:space="preserve">
<style type="text/css">
	.st0{fill:#FFFFFF;}
</style>
<g>
	<path class="st0" d="M18.87,15.26c-0.9,0-1.59,0.78-1.59,1.74c0,0.94,0.71,1.74,1.59,1.74c0.88,0,1.6-0.8,1.6-1.74
		C20.46,16.04,19.75,15.26,18.87,15.26z"/>
	<path class="st0" d="M15.98,1.03c-8.29,0-15,6.69-15,14.95s6.72,14.95,15,14.95c8.29,0,15-6.69,15-14.95
		C30.98,7.73,24.26,1.03,15.98,1.03z M25.19,20.22c-1.93,2.47-4.78,2.29-4.78,2.29l-0.97-1.22c1.71-0.36,2.8-1.88,2.8-1.88
		s-2.58,1.75-6.27,1.75S9.7,19.41,9.7,19.41s1.09,1.5,2.8,1.88l-0.97,1.22c0,0-2.86,0.19-4.78-2.29c0,0-0.16-4.24,2.2-9.14
		c0,0,2.1-1.6,4.42-1.64l0.23,0.23c0,0-2.46,0.72-3.87,1.97c0,0,2.58-1.57,6.24-1.57c3.55,0,6.09,1.47,6.22,1.56
		c-1.4-1.25-3.86-1.97-3.86-1.97l0.23-0.23c2.31,0.05,4.42,1.64,4.42,1.64C25.35,15.99,25.19,20.22,25.19,20.22z"/>
	<path class="st0" d="M13.15,15.26c-0.9,0-1.59,0.78-1.59,1.74c0,0.94,0.71,1.74,1.59,1.74c0.88,0,1.6-0.8,1.6-1.74
		C14.76,16.04,14.03,15.26,13.15,15.26z"/>
</g>
</svg>
