<?xml version="1.0" encoding="utf-8"?>
<!-- Generator: Adobe Illustrator 25.3.1, SVG Export Plug-In . SVG Version: 6.00 Build 0)  -->
<svg version="1.1" id="图层_1" xmlns="http://www.w3.org/2000/svg" xmlns:xlink="http://www.w3.org/1999/xlink" x="0px" y="0px"
	 viewBox="0 0 32 32" style="enable-background:new 0 0 32 32;" xml:space="preserve">
<style type="text/css">
	.st0{fill:#FFFFFF;}
</style>
<g>
	<path class="st0" d="M16.09,0.71c-8.35,0-15.11,6.74-15.11,15.06s6.77,15.06,15.11,15.06S31.2,24.08,31.2,15.76
		C31.2,7.45,24.43,0.71,16.09,0.71z M16.34,25.36c-3.75,0-8.8-5.01-8.8-9.87s3.94-8.8,8.8-8.8s8.8,3.94,8.8,8.8
		S20,25.36,16.34,25.36z"/>
	<g>
		<path class="st0" d="M20.46,12.05c-1.29,0-2.27,1.13-2.27,2.49c0,1.34,1.02,2.49,2.27,2.49c1.27,0,2.29-1.15,2.29-2.49
			C22.75,13.17,21.73,12.05,20.46,12.05z"/>
	</g>
	<g>
		<path class="st0" d="M12.27,12.05c-1.29,0-2.27,1.13-2.27,2.49c0,1.34,1.02,2.49,2.27,2.49c1.27,0,2.29-1.15,2.29-2.49
			C14.58,13.17,13.54,12.05,12.27,12.05z"/>
	</g>
	<g>
		<path class="st0" d="M16.3,22.58c-2.38,0-3.12-1.72-3.16-1.8c-0.09-0.23,0.01-0.49,0.24-0.59c0.23-0.09,0.49,0.01,0.59,0.24
			c0.03,0.06,0.58,1.24,2.33,1.24c1.8,0,2.52-1.23,2.55-1.29c0.12-0.22,0.4-0.29,0.62-0.17s0.29,0.39,0.18,0.61
			C19.59,20.9,18.64,22.58,16.3,22.58z"/>
	</g>
</g>
</svg>
