<?xml version="1.0" encoding="utf-8"?>
<!-- Generator: Adobe Illustrator 25.3.1, SVG Export Plug-In . SVG Version: 6.00 Build 0)  -->
<svg version="1.1" id="图层_1" xmlns="http://www.w3.org/2000/svg" xmlns:xlink="http://www.w3.org/1999/xlink" x="0px" y="0px"
	 viewBox="0 0 32 32" style="enable-background:new 0 0 32 32;" xml:space="preserve">
<style type="text/css">
	.st0{fill:#FFFFFF;}
</style>
<path class="st0" d="M15.98,1.03c-8.29,0-15,6.69-15,14.95s6.72,14.95,15,14.95s15-6.69,15-14.95C30.98,7.73,24.26,1.03,15.98,1.03z
	 M10.83,23.58c-3.98,0-7.21-3.22-7.21-7.21s3.22-7.21,7.21-7.21c3.98,0,7.21,3.22,7.21,7.21S14.8,23.58,10.83,23.58z M21.53,23.58
	c-1.61,0-2.91-3.22-2.91-7.21s1.31-7.21,2.91-7.21s2.91,3.22,2.91,7.21S23.13,23.58,21.53,23.58z M26.19,22.72
	c-0.76,0-1.38-2.84-1.38-6.35s0.62-6.35,1.38-6.35c0.76,0,1.38,2.84,1.38,6.35S26.95,22.72,26.19,22.72z"/>
</svg>
